<svg width="83" height="21" viewBox="0 0 83 21" fill="none" xmlns="http://www.w3.org/2000/svg">
<g id="acer-4" clip-path="url(#clip0_1_423)">
<path id="acer-logo" d="M82.85 1.4C82.56 0.980004 82.23 0.700004 80.81 0.590004C80.44 0.560004 79.21 0.520004 77.15 0.520004C71.73 0.520004 68.05 2.17 66.17 5.43C66.69 2.15 63.5 0.510004 56.62 0.510004C48.53 0.510004 43.48 3.78 41.47 10.32C40.73 12.23 40.65 14.34 41.24 16.3L39.33 16.43C37.84 16.54 35.87 16.65 34.67 16.65C31.71 16.65 29.87 16.15 29.16 15.15C28.52 14.25 28.59 12.59 29.33 10.17C30.56 6.15 33.62 4.35 38.51 4.35C41.04 4.35 43.51 4.62 43.51 4.62C43.81 4.57 44.02 4.29 43.97 3.98C43.97 3.97 43.97 3.96 43.96 3.95L43.91 3.57L43.74 2.22C43.63 1.33 42.97 0.810004 41.77 0.650004C40.67 0.580004 39.86 0.520004 38.65 0.520004H38.58C32.19 0.530004 27.74 2.64 25.22 6.84C26.14 2.63 23.18 0.520004 16.35 0.520004C13.62 0.470004 10.89 0.580004 8.17 0.850004C7.14 0.820004 6.21 1.46 5.84 2.42L5.3 4.15C5.2 4.47 5.35 4.63 5.76 4.63H5.77C6.07 4.59 7.23 4.48 9.21 4.32C11.83 4.11 13.76 4 15.04 4C18.81 4 20.39 4.95 19.8 6.84C19.69 7.24 19.36 7.55 18.95 7.62C15.39 8.21 12.56 8.64 10.47 8.9C4.58 9.65 1.18 11.49 0.269997 14.42C-0.980003 18.45 2.16 20.46 9.71 20.46C12.88 20.5 16.05 20.28 19.19 19.81C20.66 19.56 21.41 19.18 21.7 18.23L23.11 13.74C22.96 18.23 26.1 20.49 32.52 20.49C34.75 20.53 36.97 20.43 39.18 20.18C40.5 19.95 41.13 19.66 41.42 18.67L41.7 17.26C43.07 19.4 46.07 20.47 50.71 20.47C55.6 20.47 58.45 20.33 59.26 20.06C59.83 19.94 60.3 19.54 60.51 19C60.54 18.91 60.56 18.81 60.57 18.72L61.16 16.81C61.26 16.48 61.11 16.32 60.71 16.33L57.58 16.48C55.49 16.6 53.86 16.66 52.68 16.65C51.14 16.73 49.6 16.58 48.1 16.19C46.9 15.78 46.16 14.58 46.33 13.33L56.24 12.06C60.68 11.49 63.66 10.12 65.16 7.94L61.79 19.67C61.72 19.85 61.75 20.05 61.86 20.2C62.04 20.37 62.27 20.45 62.51 20.42H66.61C67.08 20.49 67.54 20.2 67.67 19.74L71.29 7.07C71.77 5.4 73.29 4.59 75.96 4.59C78.37 4.59 80.18 4.61 81.34 4.66C81.37 4.66 81.4 4.66 81.43 4.66C81.82 4.66 82.17 4.4 82.27 4.03L82.9 2.29C83.05 1.99 83.02 1.66 82.85 1.4ZM16.73 16.64C14.9 16.87 13.05 16.97 11.21 16.94C7.04 16.94 5.22 16.1 5.75 14.41C6.13 13.2 7.22 12.47 9.03 12.22L18.51 10.94L16.73 16.64ZM60.56 6.37C60.16 7.67 58.31 8.56 55 9.04L47.1 10.17L47.3 9.52C47.69 7.78 48.67 6.24 50.09 5.15C51.29 4.38 53.24 3.99 55.95 3.99C59.51 3.99 61.05 4.79 60.56 6.37Z" fill="#80C343"/>
</g>
<defs>
<clipPath id="clip0_1_423">
<rect width="83" height="20" fill="white" transform="translate(0 0.5)"/>
</clipPath>
</defs>
</svg>
