<svg width="20" height="21" viewBox="0 0 20 21" fill="none" xmlns="http://www.w3.org/2000/svg">
<g id="choco-menu" clip-path="url(#clip0_1_398)">
<path id="choco-menu_00000183215438076940473980000015051092392509605045_" d="M5 5.5H0V0.5H5V5.5ZM12.5 0.5H7.5V5.5H12.5V0.5ZM20 0.5H15V5.5H20V0.5ZM5 8H0V13H5V8ZM12.5 8H7.5V13H12.5V8ZM20 8H15V13H20V8ZM5 15.5H0V20.5H5V15.5ZM12.5 15.5H7.5V20.5H12.5V15.5ZM20 15.5H15V20.5H20V15.5Z" fill="white"/>
</g>
<defs>
<clipPath id="clip0_1_398">
<rect width="20" height="20" fill="white" transform="translate(0 0.5)"/>
</clipPath>
</defs>
</svg>
